<?xml version="1.0" encoding="utf-8"?>
<!-- Generator: Adobe Illustrator 21.0.0, SVG Export Plug-In . SVG Version: 6.00 Build 0)  -->
<svg version="1.1" id="Layer_1" xmlns="http://www.w3.org/2000/svg" xmlns:xlink="http://www.w3.org/1999/xlink" x="0px" y="0px"
	 viewBox="0 0 896.1 492" style="enable-background:new 0 0 896.1 492;" xml:space="preserve">
<style type="text/css">
	.st0{fill:#FFFFFF;}
	.st1{clip-path:url(#SVGID_2_);}
</style>
<path class="st0" d="M885.2,270.1c0-13.2,0.1-26.4,0-39.6c0-4.9-2.2-7.1-7.1-7.5c-0.5,0-1,0-1.5,0c-14.1,0.1-28.1,0-42.2,0.2
	c-5.5,0.1-9.7-1.8-13.4-6c-11.4-13.1-23.1-26.1-34.6-39.1c-0.9-1-1.8-2-3-2.8c-1.3-0.9-2.5-0.7-3.7,0.4c-1.1,1-1.7,2.3-2.4,3.6
	c-10.4,19.8-20.9,39.5-31.8,59c-2.7,4.8-2.7,9.2-0.4,14.2c28.9,60.9,57.7,121.8,86.5,182.8c0.9,1.8,1.8,3.6,2.2,5.6s-0.2,3-2.1,3.5
	c-1.2,0.3-2.4,0.3-3.6,0.4c-10.1,0.2-20.3-0.2-30.4,0.2c-4.6,0.2-8.1-1.9-10.4-6c-0.5-0.9-1-1.9-1.5-2.9
	c-25.6-54.8-51.5-109.5-77.5-164.2c-0.6-1.4-1.3-2.7-2-4.1c-1.1,1.2-1.8,2.4-2.1,3.8c-0.5,1.8-0.8,3.7-1.2,5.6
	c-5.7,27.6-11.4,55.3-17.1,82.9c-0.7,3.3-1.2,6.7-2.2,10c-1,3.1-3.1,4.9-6.4,5.2c-0.9,0.1-1.8,0.1-2.8,0.1
	c-18.1-0.1-36.1-0.2-54.2-0.2c-28.3,0-56.6,0-84.8,0.1c-1.5,0-3,0.1-4.5-0.3c-1.9-0.5-2.3-1.4-1.8-3.3c0.4-1.2,1-2.3,1.6-3.3
	c5.1-8.4,10.3-16.8,14.6-25.7c2.9-6,7.5-8.6,14-8.5c22.6,0.3,45.2,0.2,67.7,0.2c4.8,0,9.7,0.1,14.5,0c5.3-0.1,7.5-2,8.5-7.1
	c1.9-10.1,3.7-20.2,5.6-30.4c3.2-16.8,7-33.5,10-50.4c1.6-9.2,4-18.2,8.7-26.4c11.8-20.7,22.3-42.1,33.5-63.1
	c0.6-1.1,1.2-2.2,1.5-3.4c0.5-2-0.1-3.1-2.1-3.6c-1.5-0.4-3.1-0.3-4.7-0.2c-13.2,0-26.5,0.3-39.7-0.1c-5.9-0.2-10,2.2-12.9,7.4
	c-5.5,10-11.3,19.9-16.9,29.8c-2.3,4-2.3,4,0.9,7.3c1.9,1.9,4.4,1.8,6-0.3c1.1-1.5,2.2-3,3.3-4.4c0.9-1.1,1.9-1.3,3.1-0.4
	c1.3,1,2.7,2.1,4.1,3c0.8,0.5,0.6,0.9,0.1,1.5c-1.2,1.5-2.3,3-3.4,4.6c-4.5,6.1-9.1,12.2-13.6,18.3c-0.6,0.8-1,1-1.8,0.3
	c-1.1-1-2.4-1.8-3.6-2.7c-1.4-1.1-1.5-2-0.5-3.4c0.7-0.9,1.3-1.9,2-2.7c3.1-3.5,2.6-6.5-2.2-8.3c-1.1-0.4-1.5-0.4-2.1,0.7
	c-1.3,2.5-2.8,5-4.3,7.4c-2,3-4.4,3.5-7.6,1.9c-0.4-0.2-0.9-0.5-1.3-0.7c-5-3.2-10.2-6.1-15.5-8.8c-5.7-3-6.4-5.3-3.1-10.9
	c7.8-13.5,15.6-27,23.4-40.5c4.8-8.3,9.5-16.7,14.2-25c1.9-3.4,4.5-5.9,8.4-6.7c1.8-0.4,3.7-0.4,5.5-0.4c19.3,0.1,38.6,0.2,58,0.2
	c21.1,0,42.2-0.1,63.3-0.2c5.6,0,10.2,1.9,14,6.1c12.3,13.8,24.6,27.5,36.9,41.2c5.8,6.4,11.5,12.8,17.2,19.3
	c4.3,4.9,9.6,7.4,16.2,7c5.2-0.4,10.4-0.2,15.6-0.1c4.7,0,9.3,0.3,14-0.2c3-0.3,4.1-1.5,4.6-4.5c0.2-1.5,0.3-2.9,0.3-4.4
	c0-53.1,0-106.3,0-159.4c0-2.5,0.2-5-0.3-7.5c-0.4-2.3-1.3-3.3-3.6-3.8c-2.7-0.6-5.5-0.4-8.3-0.4c-95.9,0-191.8,0-287.7,0
	c-2.8,0-5.5-0.2-8.3,0.4c-2.2,0.5-3.1,1.5-3.5,3.7c-0.3,2-0.3,4-0.3,6c0,95.6,0,191.3,0,286.9c0,3.2,0,6.4,0,9.6
	c0.1,5-1.9,7-6.9,7.1c-6.3,0-12.6,0.1-18.9,0c-3.9,0-6.6,1.6-8.4,5c-9,16.7-18.1,33.4-27.1,50.1c-0.7,1.2-1.3,2.5-1.8,3.8
	c-0.7,2-0.1,3,2,3.3c1.2,0.2,2.5,0.3,3.7,0.3c16.3,0,32.6,0,48.8,0c6.7,0,8.7,1.9,8.6,8.6c-0.2,14.4-0.3,28.9,0,43.3
	c0.1,5.9-2,10.3-6.5,14c-11.6,9.6-23,19.3-34.5,29c-1,0.8-1.9,1.7-1.3,3.2c0.6,1.4,1.8,1.5,3.1,1.5c1.1,0,2.3-0.1,3.4-0.1
	c45,0,90.1,0,135.1,0c23.3,0,46.7,0,70,0.1c5.1,0,9.1-1.7,12.4-5.6c2.5-3,5-5.8,7.6-8.7c3.5-4,6.9-7.9,10.4-11.9c2.3-2.6,5-4,8.7-4
	c11.7,0.1,23.4,0,35.2,0c0.3,0,0.6,0,1,0.1c1.2,0.1,2.1,0.6,2.4,1.8c0.3,1.1-0.4,1.8-1.1,2.5c-7.8,7.1-15.7,14.2-23.5,21.3
	c-0.9,0.8-1.7,1.7-1.1,3.1c0.5,1.3,1.6,1.5,2.8,1.5c13.4,0,26.8-0.1,40.2,0c4.6,0,8.3-1.5,11.5-4.7c10.1-10,20.3-19.9,30.6-29.8
	c3.8-3.6,5.6-7.8,5.6-13.1C885.2,381.7,885.2,325.9,885.2,270.1z M636.7,218.6c3.8-5.2,7.7-10.4,11.5-15.5c1.8-2.4,3.6-4.9,5.4-7.3
	c0.5-0.7,0.9-1,1.7-0.3c5.3,4,10.7,8,16,12c1.6,1.2,1.7,2,0.5,3.7c-1,1.4-1.8,3-4.4,2.1c1.2,1.6,0.9,2.7,0,3.9
	c-1.5,1.9-3,3.9-4.4,5.9c-0.9,1.4-2,1.6-3.5,0.9c-1.7-0.9-3.4-1.6-5.3-2.1c1.3,1.4,2.5,2.8,3.8,4.2c1,1.1,1.2,2.1,0.2,3.3
	c-0.7,0.9-1.4,1.9-2.1,2.9c-0.8,0.9-1.7,1.2-2.7,0.5c-5.7-4.2-11.3-8.4-17-12.6C635.7,219.4,636.5,219,636.7,218.6z M779.4,33.6
	c21.5,0.3,38.9,18.3,38.6,39.8c-0.3,21.3-17.8,38.2-39.4,37.9c-21.6-0.3-38.8-17.7-38.5-39.1C740.5,51.3,758.7,33.3,779.4,33.6z"/>
<g>
	<path class="st0" d="M61.5,110.3v12.2h-56V49.9H60v12.2H20.6v18h30.9v11.7H20.6v18.5H61.5z"/>
	<path class="st0" d="M109.1,122.5l-12.4-20l-12.6,20H67.2l20.2-27.8L68.2,67.5h17.4l11.8,19.2l11.8-19.2H126l-19.5,27.2l19.8,27.8
		H109.1z"/>
	<path class="st0" d="M134.4,51.5c0-5.4,3.1-8.1,9.3-8.1s9.4,2.7,9.4,8.1s-3.1,8-9.4,8C137.5,59.6,134.4,56.9,134.4,51.5z
		 M151.2,122.5h-15.1v-55h15.1V122.5z"/>
	<path class="st0" d="M204.9,119.1c-1.8,1.4-4,2.5-6.7,3.3s-5.5,1.2-8.4,1.2c-12.2,0-18.4-5.5-18.4-16.6V78.7h-10V67.5h10V54.8
		l15.1-4.2v16.8h17.8v11.2h-17.8v25.8c0,5.1,2.5,7.6,7.6,7.6c3.2,0,6-1,8.5-3.1L204.9,119.1z"/>
	<path class="st0" d="M49.4,156.2c4.8,2.2,9.1,5.8,12.8,10.6L51.7,177c-1.9-4-4.4-6.9-7.6-8.9c-3.2-1.9-7.1-2.9-12-2.9
		c-4.4,0-7.8,0.8-10.2,2.5c-2.4,1.6-3.6,3.8-3.6,6.5c0,2.5,1.2,4.5,3.6,5.9c2.4,1.5,6.8,2.8,13.1,3.9c6.6,1.2,11.8,2.8,15.7,4.6
		s6.7,4.1,8.5,6.9c1.8,2.8,2.7,6.2,2.7,10.3c0,4.5-1.3,8.3-3.8,11.6s-6.1,5.8-10.6,7.5c-4.5,1.8-9.7,2.6-15.5,2.6
		c-8,0-14.5-1.1-19.6-3.4c-5.1-2.2-9.2-5.6-12.4-10.2l9-10.8c2.7,4.5,5.8,7.6,9.3,9.3s7.9,2.6,13.1,2.6c4.7,0,8.3-0.7,10.7-2.2
		c2.5-1.5,3.7-3.6,3.7-6.3c0-2-1.2-3.6-3.5-5s-6.4-2.6-12.4-3.7c-6.8-1.4-12.3-3-16.3-4.9c-4.1-1.9-7-4.3-8.9-7
		c-1.8-2.8-2.8-6.2-2.8-10.3c0-4.3,1.2-8.2,3.5-11.7s5.8-6.2,10.3-8.2s9.8-3,15.9-3C38.7,152.8,44.5,153.9,49.4,156.2z"/>
	<path class="st0" d="M112.4,223.1c-1.8,1.4-4,2.5-6.7,3.3s-5.5,1.2-8.4,1.2c-12.2,0-18.4-5.5-18.4-16.6v-28.3h-10v-11.2h10v-12.6
		l15.1-4.2v16.8h17.8v11.2H94v25.8c0,5.1,2.5,7.6,7.6,7.6c3.2,0,6-1,8.5-3.1L112.4,223.1z"/>
	<path class="st0" d="M158.9,171.6l-1.9,13.2c-1.7-1.1-4-1.6-6.9-1.6c-3.6,0-6.7,1.3-9.3,3.9c-2.6,2.6-3.9,6.3-3.9,10.9v28.5h-15.1
		v-55h13.1l1,10.8c3-7.9,8.7-11.9,17-11.9C155.5,170.4,157.5,170.8,158.9,171.6z"/>
	<path class="st0" d="M221.3,216.9l-1.1,9.1c-2.1,1-4.4,1.5-7.1,1.5c-7,0-11.3-2.8-12.7-8.2c-1.6,2.7-4.1,4.8-7.5,6.2
		s-7.4,2.1-12,2.1c-5.4,0-9.5-1.2-12.5-3.6c-3-2.4-4.5-5.9-4.5-10.5c0-8.9,7.2-14.7,21.5-17.4l13.2-2.5V191c0-2.9-0.8-5.3-2.5-7
		c-1.6-1.7-3.9-2.6-6.9-2.6c-3.4,0-6.1,0.7-8.2,2.2c-2.1,1.5-3.6,3.9-4.4,7.1l-12-5.1c1.2-4.8,3.8-8.5,7.9-11.2
		c4.1-2.7,9.5-4.1,16.1-4.1c7.8,0,14,1.7,18.4,5.1c4.4,3.4,6.6,8.5,6.6,15.1V213c0,1.5,0.3,2.5,1,3.2s1.7,1,3.1,1
		C219.1,217.4,220.3,217.2,221.3,216.9z M194.5,215c2.7-1.6,4-3.7,4-6.4v-5.7l-11.8,2.6c-2.5,0.6-4.3,1.4-5.6,2.4
		c-1.2,1-1.8,2.4-1.8,4.1c0,1.8,0.5,3.1,1.6,4s2.6,1.4,4.6,1.4C188.9,217.4,191.8,216.6,194.5,215z"/>
	<path class="st0" d="M265.9,223.1c-1.8,1.4-4,2.5-6.7,3.3s-5.5,1.2-8.4,1.2c-12.2,0-18.4-5.5-18.4-16.6v-28.3h-10v-11.2h10v-12.6
		l15.1-4.2v16.8h17.8v11.2h-17.8v25.8c0,5.1,2.5,7.6,7.6,7.6c3.2,0,6-1,8.5-3.1L265.9,223.1z"/>
	<path class="st0" d="M326.3,204.7h-38.9c1.5,7.8,6.1,11.7,13.8,11.7c3.2,0,5.8-0.6,7.8-1.8c2.1-1.2,3.5-2.9,4.3-5.1l12.3,4.5
		c-1.8,4.4-4.7,7.8-8.9,10.1c-4.1,2.3-9.3,3.5-15.6,3.5c-9.1,0-16.1-2.5-21.1-7.5s-7.5-12-7.5-21.1s2.4-16,7.3-21.1
		c4.8-5,11.7-7.5,20.5-7.5c8.5,0,15.1,2.5,19.6,7.4c4.6,4.9,6.9,11.9,6.9,21C326.8,200.8,326.6,202.8,326.3,204.7z M291.4,184.7
		c-2.2,2.1-3.5,5.3-4.1,9.5h25.6c-0.6-4.1-2-7.2-4.2-9.4s-5.1-3.2-8.6-3.2C296.5,181.5,293.6,182.6,291.4,184.7z"/>
	<path class="st0" d="M386.8,220.1c3.3,2.6,4.9,6.4,4.9,11.3c0,5.9-2.7,10.4-8.1,13.8c-5.4,3.3-12.6,4.9-21.4,4.9
		c-9.2,0-16-1.2-20.4-3.6c-4.4-2.4-6.7-5.7-6.7-9.9c0-2.5,0.8-4.7,2.5-6.5s4.2-3.2,7.5-4c-2.5-1-4.5-2.5-5.9-4.3
		c-1.5-1.9-2.2-4.1-2.2-6.7c0-2.6,0.8-4.9,2.3-6.8c1.5-1.9,3.7-3.3,6.4-4.3c-2.8-1.6-4.9-3.7-6.4-6.2s-2.2-5.4-2.2-8.7
		c0-5.8,2.3-10.4,6.8-13.7s10.7-5,18.4-5c4,0,7.7,0.5,11.1,1.4c1-4.3,2.8-7.7,5.6-10.2c2.8-2.5,6.5-3.5,11.2-3.2l2,10.8
		c-0.5-0.1-1.3-0.1-2.3-0.1c-2.7,0-5,0.5-6.8,1.4c-1.8,1-3.1,2.2-3.8,3.9c2.7,1.6,4.8,3.7,6.2,6.2c1.4,2.5,2.1,5.4,2.1,8.6
		c0,5.7-2.3,10.2-6.8,13.6c-4.5,3.3-10.7,5-18.5,5c-3.6,0-6.9-0.3-9.9-1c-2.9,0.7-4.3,2.4-4.3,4.9c0,1.5,0.5,2.6,1.6,3.4
		s2.6,1.2,4.6,1.2h18.6C378.9,216.2,383.5,217.5,386.8,220.1z M375.2,237.9c2.8-1.3,4.2-2.9,4.2-4.9c0-1.5-0.6-2.7-1.9-3.5
		s-3.4-1.2-6.3-1.2h-15c-6.1,0-9.1,1.6-9.1,4.9c0,2.1,1.4,3.6,4.1,4.8c2.7,1.1,6.8,1.7,12.2,1.7
		C368.4,239.8,372.4,239.2,375.2,237.9z M355,182.4c-1.9,1.7-2.8,3.9-2.8,6.6c0,2.8,0.9,5,2.8,6.7s4.3,2.5,7.2,2.5
		c3,0,5.4-0.8,7.3-2.5s2.8-3.9,2.8-6.7c0-2.7-0.9-4.9-2.8-6.6c-1.9-1.7-4.3-2.5-7.3-2.5C359.3,179.9,356.9,180.7,355,182.4z"/>
	<path class="st0" d="M431.5,229.9c-2.7,7.5-5.8,12.7-9.4,15.7s-8.3,4.5-14.2,4.5c-5.9,0-10.6-1.4-14-4.3l3.7-10.7
		c1.2,1.3,2.5,2.2,3.9,2.7s3.2,0.7,5.3,0.7c2.3,0,4.1-0.5,5.5-1.4c1.4-1,2.6-2.7,3.5-5.2l2-4.7l-6-14.3L395,171.5h16.7l10.3,33l3,11
		l3.3-11.7l10.1-32.3h15.3L431.5,229.9z"/>
</g>
<g id="g10" transform="matrix(1.25,0,0,-1.25,52.806869,316.24896)">
	<g id="g380" transform="matrix(2.642683,0,0,2.642683,-127.726,-370.47053)">
		<g>
			<defs>
				<rect id="SVGID_1_" x="-26" y="84.7" width="185.2" height="42.4"/>
			</defs>
			<clipPath id="SVGID_2_">
				<use xlink:href="#SVGID_1_"  style="overflow:visible;"/>
			</clipPath>
			<g id="g382" class="st1">
				<g id="g388" transform="translate(44.015106,224.41319)">
					<path id="path390" class="st0" d="M1.7-119.2c-0.2-0.2-1.3-1-3.2-1c-2.3,0-4,1.7-4,4c0,2.1,1.4,4.1,4.1,4.1
						c1.4,0,2.3-0.4,2.9-1l-0.8-1c-0.4,0.3-1.1,0.7-2.1,0.7c-1.6,0-2.7-1.3-2.7-2.8c0-1.9,1.3-2.8,2.6-2.8c1.1,0,1.7,0.4,1.8,0.5
						v1.5h-1.9v1.2h3.2V-119.2z"/>
				</g>
				<g id="g392" transform="translate(53.131805,227.5636)">
					<path id="path394" class="st0" d="M-1.8-120.4L-1.8-120.4c0,1-0.7,1.8-1.8,1.8c-1.1,0-1.7-0.8-1.7-1.8v0c0-1,0.7-1.8,1.7-1.8
						C-2.5-122.2-1.8-121.4-1.8-120.4 M-0.5-120.4c0-1.6-1.3-3-3.1-3c-1.7,0-3,1.3-3,2.9v0c0,1.6,1.3,3,3.1,3S-0.5-118.7-0.5-120.4
						C-0.5-120.4-0.5-120.4-0.5-120.4z"/>
				</g>
				<path id="path396" class="st0" d="M54.8,104.3h-1.3v7.9h1.3V104.3z"/>
				<g id="g398" transform="translate(67.686905,227.59869)">
					<path id="path400" class="st0" d="M-7.4-120.4c0,1.2-0.9,1.8-1.7,1.8c-0.8,0-1.7-0.5-1.7-1.8c0-1,0.6-1.8,1.7-1.8
						C-8-122.3-7.4-121.5-7.4-120.4 M-6.1-123.3h-1.2v0.8c-0.3-0.5-1.1-0.9-1.9-0.9c-1.5,0-2.8,1.1-2.8,3v0c0,1.4,0.8,3,2.9,3
						c0.8,0,1.5-0.3,1.8-0.8v2.8h1.3C-6.1-115.4-6.1-123.3-6.1-123.3z"/>
				</g>
				<g id="g402" transform="translate(78.334793,225.6452)">
					<path id="path404" class="st0" d="M-11.4-119.7c0-1.2-0.9-1.8-2.1-1.8c-1.4,0-2.3,0.6-2.4,0.7l0.6,0.9c0.6-0.4,1.3-0.6,1.8-0.6
						c0.5,0,0.8,0.2,0.8,0.6c0,0.4-0.5,0.6-1.2,0.8c-0.9,0.3-1.8,0.6-1.8,1.7v0c0,1.1,0.9,1.8,2.1,1.8c0.7,0,1.5-0.2,2.1-0.6l-0.5-1
						c-0.6,0.3-1.2,0.5-1.6,0.5c-0.5,0-0.8-0.2-0.8-0.6c0-0.5,0.8-0.7,1.2-0.8C-12.4-118.3-11.4-118.6-11.4-119.7"/>
				</g>
				<path id="path406" class="st0" d="M78.9,110.6h-1.3v1.3h1.3V110.6z"/>
				<path id="path408" class="st0" d="M78.9,104.3h-1.3v5.7h1.3V104.3z"/>
				<g id="g410" transform="translate(105.5807,223.4231)">
					<path id="path412" class="st0" d="M-21.9-118.8c-0.1,0-0.6-0.4-1.5-0.4c-1.1,0-1.8,0.6-1.8,1.8v3h-0.8v1h0.8v1.9h1.3v-1.9h1.7
						v-1h-1.7v-2.8c0-0.3,0-0.5,0.2-0.7c0.1-0.1,0.3-0.2,0.5-0.2c0.3,0,0.6,0.1,0.8,0.2L-21.9-118.8z"/>
				</g>
				<g id="g414" transform="translate(114.76781,222.94791)">
					<path id="path416" class="st0" d="M-25.4-118.7h-1.3v3.1c0,0.9-0.2,1.6-1.1,1.6c-1.1,0-1.2-1.1-1.2-1.8v-2.9h-1.3v7.9h1.3v-2.8
						c0.3,0.3,0.8,0.7,1.5,0.7c0.8,0,1.3-0.2,1.6-0.6c0.6-0.6,0.6-1.5,0.6-1.8V-118.7z"/>
				</g>
				<g id="g418" transform="translate(123.1629,225.64079)">
					<path id="path420" class="st0" d="M-28.6-119.7c0-1.2-0.9-1.8-2.1-1.8c-1.4,0-2.3,0.6-2.4,0.7l0.6,0.9c0.6-0.4,1.3-0.6,1.8-0.6
						c0.5,0,0.8,0.2,0.8,0.6c0,0.4-0.5,0.6-1.2,0.8c-0.9,0.3-1.8,0.6-1.8,1.7v0c0,1.1,0.9,1.8,2.1,1.8c0.7,0,1.5-0.2,2.1-0.6l-0.5-1
						c-0.6,0.3-1.2,0.5-1.6,0.5c-0.5,0-0.8-0.2-0.8-0.6c0-0.5,0.8-0.7,1.2-0.8C-29.5-118.3-28.6-118.6-28.6-119.7"/>
				</g>
				<g id="g422" transform="translate(93.768997,222.9491)">
					<path id="path424" class="st0" d="M-17.4-118.7h-1.3v3.1c0,0.9-0.2,1.6-1.1,1.6c-1.1,0-1.2-1.1-1.2-1.8v-2.9h-1.3v3.1
						c0,0.9-0.2,1.6-1.2,1.6c-1,0-1.2-0.9-1.2-1.6v-3.1H-26v5.7h1.2v-0.7c0.3,0.4,0.8,0.8,1.6,0.8c0.9,0,1.4-0.3,1.7-1
						c0.3,0.4,0.9,0.9,1.9,0.9c0.8,0,1.3-0.2,1.6-0.6c0.6-0.6,0.6-1.5,0.6-1.8V-118.7z"/>
				</g>
				<g id="g426" transform="translate(59.422699,216.6644)">
					<path id="path428" class="st0" d="M-4.2-116.3c0-0.3,0-0.9-0.9-0.9c-0.8,0-0.9,0.7-0.9,0.9v1.1h0.5v-1.1c0-0.3,0.1-0.5,0.4-0.5
						c0.4,0,0.4,0.3,0.4,0.5v1.2h0.5V-116.3z"/>
				</g>
				<g id="g430" transform="translate(63.300507,215.1924)">
					<path id="path432" class="st0" d="M-5.7-115.7h-0.4l-0.9,1.2v-1.2h-0.4v2H-7l0.9-1.2v1.2h0.4V-115.7z"/>
				</g>
				<path id="path434" class="st0" d="M58.8,99.5h-0.5v2h0.5V99.5z"/>
				<g id="g436" transform="translate(69.170105,218.4124)">
					<path id="path438" class="st0" d="M-7.9-116.9l-0.8-2h-0.4l-0.8,2h0.5l0.5-1.4l0.5,1.4H-7.9z"/>
				</g>
				<g id="g440" transform="translate(72.302597,215.1924)">
					<path id="path442" class="st0" d="M-9.1-115.7h-1.5v2h1.4v-0.4h-1v-0.4h0.8v-0.4h-0.8v-0.4h1V-115.7z"/>
				</g>
				<g id="g444" transform="translate(75.182205,217.3544)">
					<path id="path446" class="st0" d="M-10.2-116.5c0,0.3-0.2,0.3-0.4,0.3h-0.2v-0.6h0.2C-10.5-116.8-10.2-116.8-10.2-116.5
						 M-9.6-117.9h-0.5l-0.5,0.7h-0.3v-0.7h-0.5v2h0.8c0.2,0,0.5,0,0.6-0.2c0.1-0.1,0.2-0.2,0.2-0.5c0-0.4-0.3-0.5-0.4-0.6
						L-9.6-117.9z"/>
				</g>
				<g id="g448" transform="translate(79.211807,216.13541)">
					<path id="path450" class="st0" d="M-11.8-116.1c0-0.4-0.3-0.6-0.7-0.6c-0.4,0-0.7,0.2-0.8,0.2l0.2,0.3c0.1,0,0.3-0.2,0.6-0.2
						c0.2,0,0.3,0.1,0.3,0.2c0,0.2-0.2,0.2-0.4,0.3c-0.3,0.1-0.7,0.2-0.7,0.6c0,0.4,0.3,0.6,0.7,0.6c0.3,0,0.6-0.1,0.7-0.2l-0.2-0.3
						c0,0-0.3,0.1-0.5,0.1c-0.2,0-0.3-0.1-0.3-0.2c0-0.1,0.2-0.2,0.4-0.3C-12.1-115.5-11.8-115.7-11.8-116.1"/>
				</g>
				<path id="path452" class="st0" d="M68.5,99.5H68v2h0.5V99.5z"/>
				<g id="g454" transform="translate(84.501602,217.8006)">
					<path id="path456" class="st0" d="M-13.8-116.7h-0.6v-1.6h-0.5v1.6h-0.6v0.4h1.7V-116.7z"/>
				</g>
				<g id="g458" transform="translate(88.223099,218.4124)">
					<path id="path460" class="st0" d="M-15.2-116.9l-0.7-1.2v-0.8h-0.5v0.8l-0.7,1.2h0.6l0.4-0.8l0.5,0.8H-15.2z"/>
				</g>
				<g id="g462" transform="translate(93.511902,216.7932)">
					<path id="path464" class="st0" d="M-17.3-116.3L-17.3-116.3c0,0.4-0.2,0.6-0.6,0.6c-0.3,0-0.6-0.3-0.6-0.6v0
						c0-0.3,0.2-0.6,0.6-0.6S-17.3-116.7-17.3-116.3 M-16.8-116.3c0-0.6-0.4-1-1.1-1c-0.6,0-1.1,0.5-1.1,1v0c0,0.6,0.4,1,1.1,1
						C-17.2-115.3-16.8-115.7-16.8-116.3C-16.8-116.3-16.8-116.3-16.8-116.3z"/>
				</g>
				<g id="g466" transform="translate(97.445007,217.8006)">
					<path id="path468" class="st0" d="M-18.8-116.7h-0.9v-0.5h0.8v-0.4h-0.8v-0.8h-0.5v2h1.4V-116.7z"/>
				</g>
				<g id="g470" transform="translate(102.6004,215.1924)">
					<path id="path472" class="st0" d="M-20.7-115.7h-1.4v2h0.5v-1.6h1V-115.7z"/>
				</g>
				<g id="g474" transform="translate(105.7928,216.7932)">
					<path id="path476" class="st0" d="M-22-116.3L-22-116.3c0,0.4-0.2,0.6-0.6,0.6c-0.3,0-0.6-0.3-0.6-0.6v0c0-0.3,0.2-0.6,0.6-0.6
						C-22.2-116.9-22-116.7-22-116.3 M-21.5-116.3c0-0.6-0.4-1-1.1-1c-0.6,0-1.1,0.5-1.1,1v0c0,0.6,0.4,1,1.1,1
						C-21.9-115.3-21.5-115.7-21.5-116.3C-21.5-116.3-21.5-116.3-21.5-116.3z"/>
				</g>
				<g id="g478" transform="translate(110.27789,215.1924)">
					<path id="path480" class="st0" d="M-23.7-115.7H-24l-0.9,1.2v-1.2h-0.4v2h0.4l0.9-1.2v1.2h0.4V-115.7z"/>
				</g>
				<g id="g482" transform="translate(113.6163,216.7886)">
					<path id="path484" class="st0" d="M-25-116.3c0,0.2-0.1,0.4-0.2,0.5c-0.2,0.2-0.3,0.2-0.5,0.2h-0.3v-1.2h0.3
						c0.2,0,0.3,0,0.5,0.2C-25-116.6-25-116.5-25-116.3 M-24.5-116.3c0-0.3-0.1-0.5-0.3-0.7c-0.2-0.2-0.6-0.3-0.9-0.3h-0.7v2h0.8
						c0.3,0,0.6-0.1,0.8-0.3C-24.6-115.8-24.5-116-24.5-116.3"/>
				</g>
				<g id="g486" transform="translate(117.7746,216.7932)">
					<path id="path488" class="st0" d="M-26.5-116.3L-26.5-116.3c0,0.4-0.2,0.6-0.6,0.6c-0.3,0-0.6-0.3-0.6-0.6v0
						c0-0.3,0.2-0.6,0.6-0.6C-26.8-116.9-26.5-116.7-26.5-116.3 M-26.1-116.3c0-0.6-0.4-1-1.1-1c-0.6,0-1.1,0.5-1.1,1v0
						c0,0.6,0.4,1,1.1,1C-26.5-115.3-26.1-115.7-26.1-116.3C-26.1-116.3-26.1-116.3-26.1-116.3z"/>
				</g>
				<g id="g490" transform="translate(122.2596,215.1924)">
					<path id="path492" class="st0" d="M-28.3-115.7h-0.4l-0.9,1.2v-1.2H-30v2h0.4l0.9-1.2v1.2h0.4V-115.7z"/>
				</g>
			</g>
		</g>
	</g>
</g>
</svg>
