<?xml version="1.0" encoding="utf-8"?>
<!-- Generator: Adobe Illustrator 21.0.0, SVG Export Plug-In . SVG Version: 6.00 Build 0)  -->
<svg version="1.1" id="Layer_1" xmlns="http://www.w3.org/2000/svg" xmlns:xlink="http://www.w3.org/1999/xlink" x="0px" y="0px"
	 viewBox="0 0 340.7 431.7" style="enable-background:new 0 0 340.7 431.7;" xml:space="preserve">
<path d="M340.7,236.4c0-12,0.1-23.9,0-35.9c0-4.5-2-6.4-6.5-6.8c-0.4,0-0.9,0-1.3,0c-12.8,0-25.5,0-38.3,0.2
	c-5,0.1-8.8-1.6-12.1-5.4c-10.4-11.9-20.9-23.7-31.4-35.5c-0.8-0.9-1.6-1.8-2.7-2.5c-1.2-0.8-2.3-0.6-3.3,0.4
	c-1,0.9-1.6,2.1-2.2,3.3c-9.4,18-19,35.8-28.8,53.6c-2.4,4.4-2.5,8.4-0.3,12.9c26.2,55.3,52.3,110.6,78.5,165.9
	c0.8,1.6,1.6,3.3,2,5.1c0.4,1.8-0.2,2.7-1.9,3.1c-1.1,0.2-2.1,0.3-3.2,0.3c-9.2,0.2-18.4-0.2-27.6,0.2c-4.2,0.2-7.4-1.7-9.5-5.4
	c-0.5-0.9-0.9-1.7-1.3-2.6c-23.3-49.8-46.8-99.4-70.3-149c-0.6-1.2-1.2-2.5-1.8-3.8c-1,1.1-1.6,2.2-1.9,3.4c-0.4,1.7-0.7,3.4-1.1,5
	c-5.2,25.1-10.3,50.2-15.5,75.2c-0.6,3-1.1,6.1-2,9.1c-0.9,2.8-2.8,4.5-5.8,4.7c-0.8,0.1-1.7,0.1-2.5,0.1
	c-16.4-0.1-32.8-0.2-49.2-0.2c-25.7,0-51.3,0-77,0.1c-1.4,0-2.8,0.1-4.1-0.3c-1.7-0.5-2.1-1.3-1.6-3c0.3-1.1,0.9-2.1,1.5-3
	c4.6-7.7,9.4-15.3,13.3-23.3c2.6-5.4,6.8-7.8,12.7-7.7c20.5,0.3,41,0.2,61.5,0.2c4.4,0,8.8,0.1,13.1,0c4.8-0.1,6.8-1.8,7.7-6.5
	c1.7-9.2,3.4-18.4,5.1-27.6c2.9-15.3,6.4-30.4,9.1-45.7c1.5-8.3,3.6-16.5,7.9-24c10.7-18.8,20.3-38.2,30.4-57.3c0.5-1,1.1-2,1.3-3.1
	c0.4-1.8-0.1-2.8-1.9-3.3c-1.4-0.4-2.8-0.2-4.3-0.2c-12,0-24,0.2-36-0.1c-5.3-0.2-9.1,2-11.7,6.7c-5,9.1-10.2,18-15.4,27
	c-2.1,3.6-2.1,3.6,0.8,6.6c1.7,1.8,3.9,1.7,5.5-0.3c1-1.3,2-2.7,3-4c0.8-1,1.7-1.2,2.8-0.4c1.2,0.9,2.4,1.9,3.7,2.7
	c0.7,0.5,0.6,0.8,0.1,1.4c-1.1,1.4-2.1,2.8-3.1,4.1c-4.1,5.5-8.2,11.1-12.3,16.6c-0.5,0.7-0.9,0.9-1.7,0.3c-1-0.9-2.2-1.7-3.3-2.5
	c-1.3-1-1.4-1.8-0.4-3.1c0.6-0.8,1.2-1.7,1.9-2.5c2.8-3.1,2.3-5.9-2-7.5c-1-0.4-1.4-0.4-1.9,0.6c-1.2,2.3-2.5,4.6-3.9,6.8
	c-1.8,2.7-4,3.2-6.9,1.7c-0.4-0.2-0.8-0.4-1.1-0.7c-4.6-2.9-9.3-5.5-14.1-8c-5.2-2.7-5.8-4.8-2.8-9.9c7.1-12.2,14.2-24.5,21.2-36.8
	c4.3-7.5,8.6-15.1,12.9-22.7c1.7-3,4-5.3,7.6-6.1c1.6-0.3,3.3-0.4,5-0.4c17.5,0.1,35.1,0.2,52.6,0.2c19.2,0,38.3-0.1,57.5-0.2
	c5.1,0,9.3,1.8,12.7,5.6c11.2,12.5,22.4,24.9,33.5,37.4c5.2,5.8,10.5,11.6,15.6,17.5c3.9,4.5,8.7,6.7,14.7,6.3
	c4.7-0.3,9.5-0.1,14.2-0.1c4.2,0,8.5,0.3,12.7-0.2c2.7-0.3,3.8-1.3,4.2-4.1c0.2-1.3,0.2-2.6,0.2-4c0-48.2,0-96.4,0-144.7
	c0-2.3,0.1-4.5-0.3-6.8c-0.4-2.1-1.2-3-3.3-3.4c-2.5-0.5-5-0.3-7.5-0.3c-87,0-174.1,0-261.1,0c-2.5,0-5-0.2-7.5,0.3
	c-2,0.4-2.8,1.3-3.2,3.4c-0.3,1.8-0.3,3.6-0.3,5.5c0,86.8,0,173.6,0,260.4c0,2.9,0,5.8,0,8.7c0,4.6-1.7,6.4-6.3,6.4
	c-5.7,0-11.4,0.1-17.1,0c-3.5,0-6,1.5-7.7,4.5c-8.2,15.2-16.4,30.3-24.6,45.5c-0.6,1.1-1.2,2.3-1.6,3.5c-0.7,1.8-0.1,2.7,1.8,3
	c1.1,0.2,2.3,0.3,3.4,0.3c14.8,0,29.6,0,44.3,0c6.1,0,7.9,1.7,7.8,7.8c-0.2,13.1-0.2,26.2,0,39.3c0.1,5.3-1.9,9.3-5.9,12.7
	c-10.5,8.7-20.9,17.5-31.3,26.3c-0.9,0.8-1.7,1.6-1.2,2.9c0.5,1.3,1.7,1.4,2.8,1.4c1,0,2.1-0.1,3.1-0.1c40.9,0,81.8,0,122.6,0
	c21.2,0,42.4,0,63.5,0.1c4.6,0,8.3-1.6,11.2-5.1c2.2-2.7,4.6-5.3,6.9-7.9c3.1-3.6,6.3-7.2,9.4-10.8c2.1-2.4,4.6-3.6,7.9-3.6
	c10.6,0.1,21.3,0,31.9,0c0.3,0,0.6,0,0.9,0.1c1.1,0.1,1.9,0.6,2.2,1.6c0.3,1-0.3,1.7-1,2.3c-7.1,6.4-14.2,12.9-21.3,19.3
	c-0.8,0.8-1.5,1.6-1,2.8c0.5,1.2,1.5,1.3,2.5,1.3c12.2,0,24.3-0.1,36.5,0c4.1,0,7.5-1.4,10.4-4.3c9.2-9.1,18.4-18.1,27.7-27
	c3.4-3.3,5.1-7.1,5.1-11.9C340.7,337.8,340.7,287.1,340.7,236.4z M115.2,189.8c3.5-4.7,7-9.4,10.5-14.1c1.6-2.2,3.3-4.4,4.9-6.6
	c0.5-0.7,0.8-0.9,1.6-0.3c4.8,3.7,9.7,7.2,14.5,10.9c1.4,1.1,1.5,1.8,0.4,3.3c-0.9,1.2-1.6,2.7-4,1.9c1.1,1.5,0.8,2.5,0,3.5
	c-1.4,1.7-2.7,3.5-4,5.3c-0.9,1.2-1.8,1.5-3.2,0.8c-1.5-0.8-3.1-1.5-4.8-1.9c1.2,1.3,2.3,2.6,3.5,3.8c0.9,1,1.1,1.9,0.2,3
	c-0.7,0.8-1.3,1.8-2,2.6c-0.7,0.8-1.6,1.1-2.5,0.4c-5.1-3.8-10.3-7.6-15.4-11.4C114.3,190.4,115,190.1,115.2,189.8z M244.7,21.8
	c19.5,0.3,35.3,16.6,35,36.2c-0.3,19.4-16.2,34.7-35.7,34.4c-19.6-0.3-35.2-16.1-34.9-35.4C209.4,37.9,225.9,21.6,244.7,21.8z"/>
</svg>
