<?xml version="1.0" encoding="utf-8"?>
<!-- Generator: Adobe Illustrator 21.0.0, SVG Export Plug-In . SVG Version: 6.00 Build 0)  -->
<svg version="1.1" id="Layer_1" xmlns="http://www.w3.org/2000/svg" xmlns:xlink="http://www.w3.org/1999/xlink" x="0px" y="0px"
	 viewBox="0 0 427.4 512.5" style="enable-background:new 0 0 427.4 512.5;" xml:space="preserve">
<style type="text/css">
	.st0{fill:#FFFFFF;}
</style>
<g>
	<path d="M338.3,490.7c-4,0-8,0-12,0c-4,0-8.1,0-12.1,0c-4.1,0-8.1,0-12.2,0c-8.9,0-16.3-4.7-19.6-12.7c-0.3-0.7-0.7-1.8-1-3.2
		c-1.2,1.4-2.4,2.7-3.5,4l-0.1,0.1c-6.4,7.7-15.2,11.8-25.4,11.8c-21.1-0.1-42.7-0.1-63.5-0.1H66.3c-0.2,0-0.4,0-0.7,0
		c-0.8,0-1.6,0.1-2.4,0.1c-11,0-17.6-6.8-20.1-13.3c-1.2-3.1-4.3-14,6.2-23.4l0.3-0.3c10-8.5,20.3-17.2,30.6-25.8
		c-0.1-9.2-0.2-18.5-0.1-27.7H46.7c-2.2,0-4.4-0.2-6.5-0.6c-8.7-1.5-13-6.9-14.8-10c-1.8-3.1-4.2-9.4-1.3-17.5
		c0.9-2.5,2-4.7,2.8-6.1c4.1-7.5,8.1-15.1,12.2-22.6c4.1-7.6,8.2-15.2,12.3-22.8l0.2-0.3c5-8.8,13.7-13.9,23.8-13.9l0.3,0
		c1.5,0,3.1,0,4.6,0v-257c0-2.3,0-5.2,0.6-8.5l0.1-0.4c1.8-9.5,8.4-16.2,17.7-18.1c3.1-0.6,5.9-0.7,7.8-0.7c0.7,0,1.3,0,2,0
		c0.4,0,0.9,0,1.3,0h261.1c0.4,0,0.9,0,1.3,0c0.7,0,1.3,0,2,0c1.8,0,4.6,0.1,7.7,0.7c9.4,1.8,16.1,8.6,18,18.1l0.1,0.3
		c0.6,3.6,0.6,6.7,0.6,9l0,1v144.7c0,1.8,0,4.1-0.4,6.7c-1.1,7.8-5.4,13.8-11.7,17.2c7.3,4.3,11.6,11.9,11.6,21.5
		c0.1,8.1,0,16.2,0,24.1c0,4,0,7.9,0,11.9c0,49.8,0,101.4,0.2,152c0,9.7-3.7,18.4-10.7,25.2l-0.1,0.1c-8.3,7.9-17.3,16.7-27.5,26.8
		c-6.3,6.3-14.4,9.7-23.4,9.7L338.3,490.7z M236.3,267.2c0.5,1.1,1,2.2,1.6,3.3l0.2,0.3c22.7,47.9,46.1,97.3,69,146.3
		c0.3,0,0.6,0,0.9,0c-10.3-21.8-20.6-43.5-30.9-65.3c-13-27.5-26.1-55.1-39.1-82.6c-4.8-9.8-4.5-20.1,0.7-29.8
		c10.5-19.1,19.8-36.5,28.6-53.2c1-1.9,2.7-5.2,6-8.3c4-3.8,9.2-6,14.6-6c0.2,0,0.4,0,0.6,0c-1.5-1.7-3-3.3-4.5-5
		c-3.4-3.8-6.9-7.6-10.3-11.5c-12.6,0.1-25.4,0.1-38.3,0.2c4.6,4.8,6.7,11.7,5.2,19c-0.7,3.4-2,6-2.7,7.4l-0.4,0.7
		c-3.2,6-6.4,12.1-9.4,18.1c-6.8,13.1-13.8,26.5-21.2,39.7c-2.6,4.5-4.3,9.9-5.8,18.1c-1.6,8.9-3.4,17.8-5.2,26.4
		c-1.3,6.4-2.7,13-3.9,19.5l-5.1,27.6c-2.5,13.2-12.1,21.2-25.5,21.5c-0.8,0-1.5,0-2.3,0c8.1,0,16.1,0.1,24.1,0.1
		c2.8-13.4,5.5-26.7,8.3-40.1c2.3-11.4,4.7-22.8,7-34.2l0.1-0.4l0.1-0.4c0.2-0.6,0.3-1.3,0.4-2c0.2-0.9,0.4-1.8,0.6-2.8l0.1-0.2
		c1-4.2,3.1-8,6.2-11.4l18.8-20.7L236.3,267.2z M88.7,353.8c8,0,16.1,0,24.1,0c-7.6,0-15.8-0.1-24-0.2
		C88.8,353.7,88.8,353.7,88.7,353.8z M150.3,353.8c-0.8,0-1.7,0-2.5,0c-1.2,0-2.4,0-3.6,0C146.2,353.8,148.2,353.8,150.3,353.8z
		 M285.1,80.8c-8.6,0-16.6,8.1-16.8,17c-0.1,4.3,1.6,8.4,4.7,11.5c3.2,3.2,7.4,5,12,5.1l0.3,0c9.2,0,16.5-7.1,16.6-16.2
		C302.1,88.9,294.4,80.9,285.1,80.8L285.1,80.8z"/>
	<path class="st0" d="M374.2,40.2c1.4,0,2.8,0.1,4.2,0.3c2.1,0.4,2.9,1.3,3.3,3.4c0.4,2.3,0.3,4.5,0.3,6.8c0,48.3,0,96.5,0,144.7
		c0,1.4,0,2.7-0.2,4c-0.4,2.8-1.5,3.8-4.2,4.1c-1.9,0.2-3.8,0.3-5.8,0.3c-2.3,0-4.6-0.1-6.9-0.1c-2.7,0-5.4-0.1-8.1-0.1
		c-2,0-4.1,0-6.1,0.2c-0.5,0-0.9,0-1.4,0c-5.4,0-9.7-2.2-13.3-6.3c-5.1-5.9-10.4-11.7-15.6-17.5c-11.1-12.5-22.3-24.9-33.5-37.4
		c-3.4-3.8-7.6-5.6-12.7-5.6c-19.2,0.1-38.3,0.2-57.5,0.2c-17.5,0-35.1-0.1-52.6-0.2c-1.7,0-3.4,0.1-5,0.4c-3.6,0.8-5.9,3.1-7.6,6.1
		c-4.3,7.6-8.6,15.2-12.9,22.7c-7,12.3-14.1,24.6-21.2,36.8c-3,5.1-2.4,7.2,2.8,9.9c4.8,2.5,9.5,5.1,14.1,8c0.3,0.3,0.7,0.5,1.1,0.7
		c1.1,0.6,2,0.8,2.9,0.8c1.5,0,2.8-0.8,4-2.5c1.4-2.2,2.7-4.5,3.9-6.8c0.3-0.6,0.6-0.8,1-0.8c0.2,0,0.5,0.1,0.9,0.2
		c4.3,1.6,4.8,4.4,2,7.5c-0.7,0.8-1.3,1.7-1.9,2.5c-1,1.3-0.9,2.1,0.4,3.1c1.1,0.8,2.3,1.6,3.3,2.5c0.3,0.2,0.6,0.4,0.8,0.4
		c0.3,0,0.6-0.2,0.9-0.7c4.1-5.5,8.2-11.1,12.3-16.6c1-1.3,2-2.7,3.1-4.1c0.5-0.6,0.6-0.9-0.1-1.4c-1.3-0.8-2.5-1.8-3.7-2.7
		c-0.5-0.3-0.9-0.5-1.3-0.5c-0.6,0-1.1,0.3-1.5,0.9c-1,1.3-2,2.7-3,4c-0.8,1.1-1.9,1.6-2.9,1.6c-0.9,0-1.8-0.4-2.6-1.3
		c-2.9-3-2.9-3-0.8-6.6c5.2-9,10.4-17.9,15.4-27c2.5-4.5,6.1-6.7,11-6.7c0.2,0,0.4,0,0.7,0c5.1,0.1,10.3,0.2,15.4,0.2
		c6.9,0,13.7-0.1,20.6-0.1c0.8,0,1.5-0.1,2.2-0.1c0.7,0,1.4,0.1,2.1,0.2c1.8,0.5,2.3,1.5,1.9,3.3c-0.2,1.1-0.8,2.1-1.3,3.1
		c-10.1,19.1-19.7,38.5-30.4,57.3c-4.3,7.5-6.4,15.7-7.9,24c-2.7,15.3-6.2,30.4-9.1,45.7c-1.7,9.2-3.4,18.4-5.1,27.6
		c-0.9,4.7-2.9,6.4-7.7,6.5c-1.4,0-2.9,0-4.3,0c-2.9,0-5.8,0-8.8,0c-8.2,0-16.4,0-24.6,0c-12.3,0-24.6,0-36.9-0.2
		c-0.1,0-0.2,0-0.4,0c-5.7,0-9.8,2.4-12.3,7.7c-3.9,8-8.7,15.6-13.3,23.3c-0.6,0.9-1.2,1.9-1.5,3c-0.5,1.7-0.1,2.5,1.6,3
		c0.9,0.3,1.8,0.3,2.7,0.3c0.5,0,0.9,0,1.4,0c25.7-0.1,51.3-0.1,77-0.1c16.4,0,32.8,0.1,49.2,0.2c0.8,0,1.7,0,2.5-0.1
		c3-0.2,4.9-1.9,5.8-4.7c0.9-3,1.4-6.1,2-9.1c5.2-25,10.3-50.1,15.5-75.2c0.4-1.6,0.7-3.3,1.1-5c0.3-1.2,0.9-2.3,1.9-3.4
		c0.6,1.3,1.2,2.6,1.8,3.8c23.5,49.6,47,99.2,70.3,149c0.4,0.9,0.8,1.7,1.3,2.6c2,3.5,5,5.4,8.9,5.4c0.2,0,0.4,0,0.6,0
		c3.4-0.1,6.8-0.2,10.2-0.2c3.7,0,7.4,0,11.2,0c2.1,0,4.2,0,6.3-0.1c1.1,0,2.1-0.1,3.2-0.3c1.7-0.4,2.3-1.3,1.9-3.1
		c-0.4-1.8-1.2-3.5-2-5.1c-26.2-55.3-52.3-110.6-78.5-165.9c-2.2-4.5-2.1-8.5,0.3-12.9c9.8-17.8,19.4-35.6,28.8-53.6
		c0.6-1.2,1.2-2.4,2.2-3.3c0.6-0.6,1.2-0.9,1.8-0.9c0.5,0,0.9,0.2,1.5,0.5c1.1,0.7,1.9,1.6,2.7,2.5c10.5,11.8,21,23.6,31.4,35.5
		c3.2,3.7,6.9,5.4,11.7,5.4c0.1,0,0.3,0,0.4,0c12.8-0.2,25.5-0.2,38.3-0.2c0.4,0,0.9,0,1.3,0c4.5,0.4,6.5,2.3,6.5,6.8
		c0.1,12,0,23.9,0,35.9c0,50.7,0,101.4,0.2,152.1c0,4.8-1.7,8.6-5.1,11.9c-9.3,8.9-18.5,17.9-27.7,27c-2.9,2.9-6.3,4.3-10.4,4.3
		c-4.1,0-8.1,0-12.2,0c-8.1,0-16.2,0-24.3,0c-1,0-2-0.1-2.5-1.3s0.2-2,1-2.8c7.1-6.4,14.2-12.9,21.3-19.3c0.7-0.6,1.3-1.3,1-2.3
		c-0.3-1-1.1-1.5-2.2-1.6c-0.3-0.1-0.6-0.1-0.9-0.1c-7.1,0-14.2,0-21.3,0c-3.5,0-7.1,0-10.6,0c-3.3,0-5.8,1.2-7.9,3.6
		c-3.1,3.6-6.3,7.2-9.4,10.8c-2.3,2.6-4.7,5.2-6.9,7.9c-2.9,3.5-6.6,5.1-11.2,5.1c-21.1-0.1-42.3-0.1-63.5-0.1
		c-40.8,0-81.7,0-122.6,0c-1,0-2.1,0.1-3.1,0.1c-1.1,0-2.3-0.1-2.8-1.4c-0.5-1.3,0.3-2.1,1.2-2.9c10.4-8.8,20.8-17.6,31.3-26.3
		c4-3.4,6-7.4,5.9-12.7c-0.2-13.1-0.2-26.2,0-39.3c0.1-6.1-1.7-7.8-7.8-7.8c-14.7,0-29.5,0-44.3,0c-1.1,0-2.3-0.1-3.4-0.3
		c-1.9-0.3-2.5-1.2-1.8-3c0.4-1.2,1-2.4,1.6-3.5c8.2-15.2,16.4-30.3,24.6-45.5c1.7-3,4.2-4.5,7.7-4.5c1.9,0,3.8,0,5.7,0
		c3.8,0,7.6,0,11.4,0c4.6,0,6.3-1.8,6.3-6.4c0-2.9,0-5.8,0-8.7c0-86.8,0-173.6,0-260.4c0-1.9,0-3.7,0.3-5.5c0.4-2.1,1.2-3,3.2-3.4
		c1.4-0.3,2.8-0.3,4.2-0.3c1.1,0,2.2,0,3.3,0c87,0,174.1,0,261.1,0C372,40.3,373.1,40.2,374.2,40.2 M285.3,132.9
		c19.2,0,34.8-15.2,35.1-34.4c0.3-19.6-15.5-35.9-35-36.2c-0.1,0-0.2,0-0.3,0c-18.7,0-35,16.2-35.3,35.2
		c-0.3,19.3,15.3,35.1,34.9,35.4C285,132.9,285.1,132.9,285.3,132.9 M172.1,243.3c0.5,0,1-0.3,1.5-0.8c0.7-0.8,1.3-1.8,2-2.6
		c0.9-1.1,0.7-2-0.2-3c-1.2-1.2-2.3-2.5-3.5-3.8c1.7,0.4,3.3,1.1,4.8,1.9c0.5,0.2,0.9,0.4,1.3,0.4c0.7,0,1.3-0.4,1.9-1.2
		c1.3-1.8,2.6-3.6,4-5.3c0.8-1,1.1-2,0-3.5c0.5,0.2,0.9,0.2,1.2,0.2c1.5,0,2-1.2,2.8-2.1c1.1-1.5,1-2.2-0.4-3.3
		c-4.8-3.7-9.7-7.2-14.5-10.9c-0.3-0.2-0.6-0.4-0.8-0.4c-0.3,0-0.5,0.2-0.8,0.7c-1.6,2.2-3.3,4.4-4.9,6.6c-3.5,4.7-7,9.4-10.5,14.1
		c-0.2,0.3-0.9,0.6-0.3,1.2c5.1,3.8,10.3,7.6,15.4,11.4C171.4,243.1,171.8,243.3,172.1,243.3 M374.2,3.2c-0.8,0-1.6,0-2.3,0
		c-0.3,0-0.7,0-1,0H109.8c-0.3,0-0.7,0-1,0c-0.8,0-1.5,0-2.3,0c-2.6,0-6.7,0.1-11.4,1.1C78.3,7.6,65.9,20.2,62.7,37l-0.1,0.4
		l-0.1,0.4c-0.8,4.8-0.8,8.9-0.8,11.6V290c-11,3.4-20.4,10.8-26.3,21.3l-0.2,0.3l-0.2,0.3c-4.1,7.6-8.2,15.1-12.3,22.7
		c-4.1,7.6-8.2,15.1-12.3,22.7c-1.1,2-2.6,5-3.9,8.7c-4,11-3,23,2.7,32.9c5.8,10.1,15.9,17,27.7,19c3.2,0.6,6.4,0.8,9.7,0.8h15
		c0,0.2,0,0.4,0,0.6c-8.1,6.8-16.1,13.6-24,20.2l-0.3,0.3l-0.3,0.3c-15.4,13.7-15.9,31.6-11.2,43.8c4,10.4,12.3,18.6,22.7,22.5
		c4.6,1.7,9.4,2.6,14.6,2.6c1.4,0,2.5-0.1,3.3-0.1l0.2,0h122.2c20.8,0,42.3,0,63.3,0.1l0.1,0h0.1c9.6,0,18.7-2.5,26.5-7.1
		c6.5,4.6,14.5,7.1,23.1,7.1c4.1,0,8.2,0,12.3,0c4,0,8,0,12,0c4.4,0,8.3,0,11.9,0l0.2,0h0.2c14,0,26.6-5.2,36.5-15.1
		c10.3-10.1,18.9-18.6,27.2-26.5l0.1-0.1l0.1-0.1c10.7-10.4,16.3-23.7,16.3-38.5v-0.1l0-0.1c-0.2-50.6-0.2-102.1-0.2-152
		c0-4,0-7.9,0-11.9c0-7.9,0-16.1,0-24.2c0-7.7-1.8-14.8-5.1-21c2.5-4.4,4.2-9.5,5-14.9c0.6-4,0.6-7.4,0.6-9.4V50.8
		c0-0.3,0-0.6,0-0.9c0-2.8,0.1-7.1-0.9-12.3l-0.1-0.3L418,37c-3.2-17-15.7-29.5-32.6-32.8C380.8,3.3,376.8,3.2,374.2,3.2L374.2,3.2z
		"/>
</g>
</svg>
