<?xml version="1.0" encoding="iso-8859-1"?>
<!-- Generator: Adobe Illustrator 19.0.0, SVG Export Plug-In . SVG Version: 6.00 Build 0)  -->
<svg xmlns="http://www.w3.org/2000/svg" xmlns:xlink="http://www.w3.org/1999/xlink" version="1.1" id="Capa_1" x="0px" y="0px" viewBox="0 0 512.001 512.001" style="enable-background:new 0 0 512.001 512.001;" xml:space="preserve" width="512px" height="512px">
<g>
	<g>
		<path d="M509.072,155.448c1.875-1.876,2.929-4.419,2.929-7.071c0-2.652-1.054-5.195-2.929-7.071l-45.764-45.763    c-1.876-1.875-4.419-2.929-7.071-2.929c-2.652,0-5.196,1.054-7.071,2.93c-4.27,4.271-9.949,6.623-15.989,6.623    c-6.041,0-11.721-2.354-15.993-6.626c-4.271-4.271-6.624-9.95-6.624-15.99c-0.001-6.041,2.352-11.72,6.623-15.991    c1.876-1.875,2.93-4.419,2.93-7.071c0-2.652-1.054-5.195-2.929-7.071L370.697,2.93C368.821,1.055,366.278,0,363.626,0    c-2.652,0-5.195,1.054-7.071,2.929c-4.271,4.271-9.951,6.624-15.991,6.624c-6.041,0-11.72-2.352-15.991-6.623    C322.698,1.055,320.154,0,317.502,0c-2.652,0-5.195,1.054-7.071,2.929L2.929,310.43C1.054,312.306,0,314.849,0,317.501    c0,2.652,1.054,5.195,2.929,7.071c4.272,4.271,6.624,9.95,6.624,15.991c0,6.041-2.353,11.72-6.624,15.991    C1.054,358.431,0,360.974,0,363.626c0,2.652,1.054,5.195,2.929,7.071l46.485,46.485c3.906,3.904,10.237,3.905,14.142,0    c4.272-4.271,9.951-6.623,15.991-6.623c6.041,0,11.721,2.353,15.992,6.624c8.818,8.818,8.819,23.166,0.002,31.982    c-3.905,3.905-3.905,10.237,0,14.143l45.763,45.763c1.876,1.875,4.419,2.929,7.071,2.929s5.195-1.054,7.071-2.929    c4.271-4.271,9.95-6.624,15.991-6.624c6.041,0,11.72,2.353,15.991,6.624c1.876,1.875,4.419,2.929,7.071,2.929    c2.652,0,5.195-1.054,7.071-2.929l307.501-307.5c1.875-1.876,2.929-4.419,2.929-7.071s-1.054-5.195-2.929-7.071    C500.254,178.612,500.254,164.264,509.072,155.448z M193.671,488.688c-6.626-4.067-14.263-6.24-22.233-6.24    c-7.97,0-15.607,2.174-22.233,6.24L115.916,455.4c10.024-16.405,7.946-38.177-6.234-52.358    c-8.05-8.049-18.751-12.482-30.135-12.482c-7.971,0-15.606,2.173-22.231,6.239l-34.003-34.002    c4.067-6.626,6.24-14.263,6.24-22.233c0-7.97-2.173-15.607-6.24-22.233L318.33,23.313c6.626,4.066,14.263,6.24,22.233,6.24    c7.97,0,15.607-2.173,22.233-6.24L396.8,57.316c-4.067,6.626-6.24,14.263-6.24,22.233c0,11.383,4.433,22.084,12.481,30.133    c8.05,8.05,18.753,12.482,30.136,12.482c7.97,0,15.606-2.173,22.231-6.239l33.28,33.279c-4.067,6.626-6.24,14.263-6.24,22.233    c0,7.972,2.173,15.609,6.241,22.234L193.671,488.688z" fill="#FFFFFF"/>
	</g>
</g>
<g>
	<g>
		<path d="M395.31,248.54c-7.587-28.318-32.691-60.776-51.882-79.967c-19.19-19.191-51.648-44.294-79.966-51.881    c-3.453-0.926-7.133,0.063-9.659,2.588c-26.907,26.907-51.794,64.83-64.949,98.971c-16.53,42.9-14.268,77.892,6.368,98.528    c11.548,11.548,27.253,17.403,46.678,17.403c0.003,0-0.001,0,0.002,0c49.13,0,113.063-38.226,150.82-75.983    C395.247,255.673,396.235,251.991,395.31,248.54z M241.899,314.182c-13.928,0-24.874-3.885-32.535-11.546    c-19.843-19.843-9.675-56.882-1.849-77.195c11.53-29.922,32.809-63.018,56.233-87.71c19.391,6.95,44.922,24.369,65.536,44.984    c20.616,20.615,38.034,46.144,44.983,65.534C339.732,280.958,283.353,314.182,241.899,314.182z" fill="#FFFFFF"/>
	</g>
</g>
<g>
	<g>
		<path d="M273.167,193.06c-3.211-5.56-7.846-10.194-13.404-13.402c-4.784-2.761-10.9-1.12-13.659,3.663    c-2.761,4.783-1.121,10.898,3.663,13.659c2.52,1.454,4.622,3.557,6.079,6.079c1.456,2.523,2.226,5.396,2.226,8.307    c0,5.522,4.478,10,10,10c5.523,0,10-4.478,10-10C278.072,204.949,276.376,198.62,273.167,193.06z" fill="#FFFFFF"/>
	</g>
</g>
<g>
	<g>
		<path d="M334.058,252.516c-3.207-5.557-7.841-10.192-13.401-13.402c-5.558-3.209-11.889-4.905-18.307-4.905    c-5.522,0-10,4.477-10,10c0,5.522,4.478,10,10,10c2.912,0,5.785,0.77,8.306,2.225c2.523,1.457,4.626,3.561,6.082,6.082    c1.852,3.208,5.213,5.002,8.67,5.002c1.696,0,3.416-0.433,4.99-1.342C335.181,263.414,336.82,257.299,334.058,252.516z" fill="#FFFFFF"/>
	</g>
</g>
<g>
	<g>
		<path d="M258.696,269.919c-4.437-0.001-8.61-1.728-11.748-4.866c-3.139-3.138-4.866-7.31-4.866-11.747c0-5.522-4.478-10-10-10    c-5.523,0-10,4.478-10,10c0,9.779,3.808,18.974,10.725,25.89c6.915,6.914,16.108,10.723,25.888,10.724h0.001    c5.521,0,9.999-4.477,10-9.999C268.696,274.398,264.22,269.921,258.696,269.919z" fill="#FFFFFF"/>
	</g>
</g>
<g>
	<g>
		<path d="M183.579,370.871l-0.189-0.19c-3.906-3.904-10.236-3.904-14.143,0c-3.905,3.905-3.905,10.237,0,14.143l0.19,0.19    c1.953,1.952,4.512,2.929,7.071,2.929s5.118-0.977,7.071-2.929C187.484,381.109,187.484,374.777,183.579,370.871z" fill="#FFFFFF"/>
	</g>
</g>
<g>
	<g>
		<path d="M163.073,350.365l-21.943-21.944c-3.904-3.903-10.234-3.905-14.143,0c-3.905,3.905-3.905,10.237,0,14.142l21.944,21.945    c1.953,1.952,4.512,2.929,7.071,2.929c2.558,0,5.118-0.977,7.071-2.929C166.978,360.603,166.978,354.271,163.073,350.365z" fill="#FFFFFF"/>
	</g>
</g>
<g>
	<g>
		<path d="M395.005,159.446l-21.944-21.945c-3.906-3.904-10.236-3.904-14.143,0c-3.905,3.905-3.905,10.237,0,14.143l21.945,21.944    c1.953,1.952,4.512,2.929,7.071,2.929s5.118-0.977,7.071-2.929C398.91,169.683,398.91,163.352,395.005,159.446z" fill="#FFFFFF"/>
	</g>
</g>
<g>
	<g>
		<path d="M352.745,117.186l-0.19-0.19c-3.906-3.904-10.236-3.904-14.143,0c-3.905,3.905-3.905,10.237,0,14.143l0.191,0.19    c1.953,1.952,4.512,2.929,7.071,2.929c2.56,0,5.118-0.977,7.071-2.929C356.65,127.424,356.65,121.092,352.745,117.186z" fill="#FFFFFF"/>
	</g>
</g>
<g>
</g>
<g>
</g>
<g>
</g>
<g>
</g>
<g>
</g>
<g>
</g>
<g>
</g>
<g>
</g>
<g>
</g>
<g>
</g>
<g>
</g>
<g>
</g>
<g>
</g>
<g>
</g>
<g>
</g>
</svg>
